<?xml version="1.0" encoding="iso-8859-1"?>
<!-- Generator: Adobe Illustrator 19.0.0, SVG Export Plug-In . SVG Version: 6.00 Build 0)  -->
<svg version="1.1" id="Capa_1" xmlns="http://www.w3.org/2000/svg" xmlns:xlink="http://www.w3.org/1999/xlink" x="0px" y="0px"
	 viewBox="0 0 416.768 416.768" style="enable-background:new 0 0 416.768 416.768;" xml:space="preserve">
<g>
	<g>
		<path d="M89.088,93.44C39.936,93.44,0,133.376,0,182.528c0,47.616,37.376,86.528,83.968,89.088v130.56
			c0,3.072,2.048,5.12,5.12,5.12s5.12-2.048,5.12-5.12v-130.56c46.592-2.56,83.968-41.472,83.968-89.088
			C178.176,133.376,138.24,93.44,89.088,93.44z M94.208,261.888V236.8l37.376-37.376c2.048-2.048,2.048-5.12,0-7.168
			c-2.048-2.048-5.12-2.048-7.168,0l-30.208,30.208v-54.272c0-3.072-2.048-5.12-5.12-5.12c-3.072,0-5.12,2.048-5.12,5.12v53.76
			L53.76,191.744c-2.048-2.048-5.12-2.048-7.168,0c-2.048,2.048-2.048,5.12,0,7.168l37.376,37.376v25.088
			c-40.96-2.56-73.728-36.864-73.728-78.848c0-43.008,35.328-78.336,78.848-78.336s78.848,35.328,78.848,78.848
			C167.936,225.024,135.168,258.816,94.208,261.888z"/>
	</g>
</g>
<g>
	<g>
		<path d="M304.128,9.472c-61.952,0-112.64,50.688-112.64,112.64c0,25.6,8.704,50.176,24.576,70.144
			c-27.648,5.12-49.664,30.72-49.664,60.928c0,32.768,25.088,59.392,56.832,61.952v87.04c0,3.072,2.048,5.12,5.12,5.12
			c3.072,0,5.12-2.048,5.12-5.12v-87.04c31.744-2.56,56.832-29.184,56.832-61.952c0-7.168-1.024-13.824-3.584-20.48
			c4.096,0.512,8.192,1.024,12.288,1.536v167.936c0,3.072,2.048,5.12,5.12,5.12c3.072,0,5.12-2.048,5.12-5.12V234.24
			c59.904-2.56,107.52-52.224,107.52-112.128C416.768,60.16,366.08,9.472,304.128,9.472z M233.472,304.896v-14.848l25.088-25.088
			c2.048-2.048,2.048-5.12,0-7.168c-2.048-2.048-5.12-2.048-7.168,0L233.984,275.2v-32.768c0-3.072-2.048-5.12-5.12-5.12
			c-3.072,0-5.12,2.048-5.12,5.12V275.2l-17.408-17.408c-2.048-2.048-5.12-2.048-7.168,0c-2.048,2.048-2.048,5.12,0,7.168
			l25.088,25.088v14.848c-26.112-2.56-46.592-24.576-46.592-51.712c-1.024-28.16,21.504-51.2,49.664-51.712h1.024
			c28.672,0,51.712,23.552,51.712,51.712C280.064,280.32,259.584,302.336,233.472,304.896z M309.76,224v-34.304l48.128-48.128
			c2.048-2.048,2.048-5.12,0-7.168c-2.048-2.048-5.12-2.048-7.168,0l-40.96,40.96v-72.704c0-3.072-2.048-5.12-5.12-5.12
			c-3.072,0-5.12,2.048-5.12,5.12v72.192l-40.96-40.96c-2.048-2.048-5.12-2.048-7.168,0c-2.048,2.048-2.048,5.12,0,7.168
			l48.128,48.128v34.304c-5.632-0.512-11.776-1.024-17.92-2.56c-10.752-17.92-30.208-29.696-52.224-30.208
			c-17.408-18.944-27.136-43.52-27.136-69.12c0-56.32,46.08-101.888,102.4-101.888s102.4,46.08,102.4,102.4
			C407.04,176.896,364.032,221.44,309.76,224z"/>
	</g>
</g>
<g>
</g>
<g>
</g>
<g>
</g>
<g>
</g>
<g>
</g>
<g>
</g>
<g>
</g>
<g>
</g>
<g>
</g>
<g>
</g>
<g>
</g>
<g>
</g>
<g>
</g>
<g>
</g>
<g>
</g>
</svg>
